<svg xmlns="http://www.w3.org/2000/svg" viewBox="0 0 300 300" width="300" height="300">
	<style>
		tspan { white-space:pre }
		.shp0 { fill: #563d7c } 
		.shp1 { fill: #ffffff } 
	</style>
	<g id="Layer">
		<path id="Layer" class="shp0" d="M21,243.99c0,18.23 14.78,33.01 33.01,33.01h189.98c18.23,0 33.01,-14.78 33.01,-33.01v-189.98c0,-18.23 -14.78,-33.01 -33.01,-33.01h-189.98c-18.23,0 -33.01,14.78 -33.01,33.01z" />
		<path id="Layer" class="shp1" d="M161.67,134.24c6.08,0 11.07,-1.45 14.98,-4.34c3.91,-2.89 5.86,-7.6 5.86,-14.11c0,-3.62 -0.65,-6.58 -1.95,-8.9c-1.3,-2.32 -3.04,-4.12 -5.21,-5.43c-2.17,-1.3 -4.67,-2.21 -7.49,-2.71c-2.82,-0.51 -5.75,-0.76 -8.79,-0.76h-31.91v36.25zM166.02,71.5c7.38,0 14.11,0.65 20.19,1.95c6.08,1.3 11.29,3.44 15.63,6.4c4.34,2.97 7.71,6.91 10.09,11.83c2.39,4.92 3.58,11 3.58,18.24c0,7.82 -1.77,14.33 -5.32,19.54c-3.55,5.21 -8.79,9.48 -15.74,12.81c9.55,2.75 16.68,7.56 21.38,14.44c4.7,6.87 7.06,15.16 7.06,24.86c0,7.82 -1.52,14.58 -4.56,20.3c-3.04,5.72 -7.13,10.38 -12.27,14c-5.14,3.62 -11,6.3 -17.58,8.03c-6.58,1.74 -13.35,2.61 -20.3,2.61h-75.11v-155zM163.63,200.02c3.33,0 6.51,-0.33 9.55,-0.98c3.04,-0.65 5.72,-1.74 8.03,-3.26c2.32,-1.52 4.16,-3.58 5.54,-6.19c1.37,-2.61 2.06,-5.93 2.06,-9.99c0,-7.96 -2.24,-13.64 -6.73,-17.04c-4.49,-3.4 -10.42,-5.1 -17.8,-5.1h-37.12v42.55z" />
	</g>
</svg>