<svg xmlns="http://www.w3.org/2000/svg" viewBox="0 0 305 305" width="305" height="305">
	<defs>
		<linearGradient id="grd1" gradientUnits="userSpaceOnUse"  x1="11874.679" y1="12383.134" x2="11874.679" y2="27362.563">
			<stop offset="0" stop-color="#f7f6f3"  />
			<stop offset="100" stop-color="#fef6d5"  />
		</linearGradient>
	</defs>
	<style>
		tspan { white-space:pre }
		.shp0 { fill: #a1070c } 
		.shp1 { fill: url(#grd1) } 
	</style>
	<g id="Layer">
		<path id="Layer" class="shp0" d="M34.07,83.7l116.93,-67.51l116.93,67.51v135.02l-116.93,67.51l-116.93,-67.51zM279,225.1v-147.79l-128,-73.9l-128,73.9v147.79l128,73.9z" />
		<path id="Layer" class="shp1" d="M32.58,82.83l118.42,-68.37l118.42,68.37v136.74l-118.42,68.37l-118.42,-68.37z" />
		<path id="Layer" class="shp0" d="M205.33,101.17c0,5.37 -1.06,10.71 -3.18,16.01c-2.12,5.3 -4.96,10.21 -8.53,14.74c-3.57,4.52 -7.69,8.48 -12.35,11.87c-4.66,3.39 -9.51,5.83 -14.52,7.31l-2.23,-3.71c2.97,-1.48 5.69,-3.39 8.16,-5.72c2.47,-2.33 4.59,-4.96 6.36,-7.9c1.77,-2.93 3.13,-6.04 4.08,-9.33c0.95,-3.29 1.43,-6.63 1.43,-10.02c0,-3.89 -0.57,-7.56 -1.7,-11.03c-1.13,-3.46 -2.79,-6.48 -4.98,-9.06c-2.19,-2.58 -4.89,-4.61 -8.11,-6.1c-3.22,-1.48 -6.91,-2.23 -11.08,-2.23c-5.09,0 -9.75,0.99 -13.99,2.97c-4.24,1.98 -8.06,4.65 -11.45,8c-3.39,3.36 -6.34,7.21 -8.85,11.56c-2.51,4.35 -4.59,8.91 -6.25,13.68c-1.66,4.77 -2.92,9.59 -3.76,14.47c-0.85,4.88 -1.27,9.47 -1.27,13.78c0,4.38 0.46,8.91 1.38,13.57c0.92,4.66 2.26,9.26 4.03,13.78c1.77,4.52 3.96,8.8 6.57,12.83c2.62,4.03 5.64,7.56 9.06,10.6c3.43,3.04 7.24,5.46 11.45,7.26c4.21,1.8 8.78,2.7 13.73,2.7c3.39,0 6.7,-0.46 9.91,-1.38c3.22,-0.92 6.31,-2.16 9.28,-3.71c2.97,-1.55 5.78,-3.39 8.43,-5.51c2.65,-2.12 5.11,-4.42 7.37,-6.89l3.5,3.39c-3.11,4.1 -6.8,8.04 -11.08,11.82c-4.28,3.78 -8.89,7.14 -13.83,10.07c-4.95,2.93 -10.12,5.27 -15.53,7c-5.41,1.73 -10.76,2.6 -16.06,2.6c-5.16,0 -10.02,-0.9 -14.58,-2.7c-4.56,-1.8 -8.75,-4.24 -12.56,-7.31c-3.82,-3.07 -7.23,-6.68 -10.23,-10.81c-3,-4.13 -5.55,-8.53 -7.63,-13.2c-2.08,-4.66 -3.68,-9.47 -4.77,-14.42c-1.1,-4.95 -1.64,-9.79 -1.64,-14.52c0,-6.86 1.15,-13.91 3.45,-21.15c2.3,-7.24 5.46,-14.28 9.49,-21.1c4.03,-6.82 8.78,-13.27 14.26,-19.35c5.48,-6.08 11.38,-11.38 17.7,-15.9c6.33,-4.52 12.93,-8.11 19.82,-10.76c6.89,-2.65 13.76,-3.98 20.62,-3.98c4.24,0 8.2,0.62 11.87,1.86c3.68,1.24 6.86,3.02 9.54,5.35c2.69,2.33 4.81,5.23 6.36,8.69c1.55,3.46 2.33,7.42 2.33,11.87z" />
	</g>
</svg>