<svg xmlns="http://www.w3.org/2000/svg" viewBox="0 0 256 256" width="256" height="256">
	<style>
		tspan { white-space:pre }
		.shp0 { fill: #ea4335 } 
		.shp1 { fill: #4285f4 } 
		.shp2 { fill: #34a853 } 
		.shp3 { fill: #fbbc05 } 
	</style>
	<g id="Layer">
		<path id="Layer" class="shp0" d="M170.25,81.82l22.25,-22.25l1.48,-9.37c-40.55,-36.87 -105.01,-32.69 -141.57,8.72c-10.15,11.5 -17.69,25.84 -21.7,40.65l7.97,-1.12l44.51,-7.34l3.44,-3.51c19.8,-21.74 53.27,-24.67 76.13,-6.17z" />
		<path id="Layer" class="shp1" d="M224.2,98.92c-5.12,-18.84 -15.62,-35.77 -30.22,-48.72l-31.23,31.23c13.19,10.78 20.7,27.01 20.38,44.04v5.54c15.35,0 27.8,12.44 27.8,27.8c0,15.35 -12.45,27.48 -27.8,27.48h-55.67l-5.47,5.93v33.34l5.47,5.23h55.67c39.93,0.31 72.55,-31.49 72.86,-71.42c0.19,-24.2 -11.75,-46.89 -31.79,-60.45z" />
		<path id="Layer" class="shp2" d="M71.87,230.8h55.59v-44.51h-55.59c-3.96,0 -7.8,-0.85 -11.4,-2.5l-7.89,2.42l-22.41,22.25l-1.95,7.57c12.57,9.49 27.9,14.82 43.65,14.76z" />
		<path id="Layer" class="shp3" d="M71.87,86.43c-39.93,0.24 -72.11,32.8 -71.87,72.73c0.13,22.3 10.55,43.29 28.22,56.88l32.25,-32.25c-13.99,-6.32 -20.21,-22.79 -13.89,-36.78c6.32,-13.99 22.79,-20.21 36.77,-13.89c6.17,2.78 11.1,7.72 13.89,13.89l32.25,-32.25c-13.72,-17.94 -35.04,-28.42 -57.62,-28.34z" />
	</g>
</svg>