<svg xmlns="http://www.w3.org/2000/svg" viewBox="0 0 120 120" width="120" height="120">
	<style>
		tspan { white-space:pre }
		.shp0 { fill: #413000 } 
		.shp1 { fill: #f05133 } 
	</style>
	<path id="Layer" class="shp0" d="M185.82,41.14l0,0c0,0 0,0 0,0M189.85,52.12c0,12.08 -9.47,19.15 -23.17,19.15c-3.49,0 -6.64,-0.43 -8.6,-0.98l-3.59,5.76l10.66,0.65c18.82,1.2 29.91,1.74 29.91,16.21c0,12.51 -10.99,19.58 -29.91,19.58c-19.69,0 -27.2,-5 -27.2,-13.6c0,-4.9 2.18,-7.5 5.98,-11.1c-3.59,-1.52 -4.79,-4.24 -4.79,-7.17c0,-2.39 1.19,-4.57 3.16,-6.64c1.96,-2.06 4.13,-4.13 6.74,-6.53c-5.33,-2.61 -9.36,-8.27 -9.36,-16.32c0,-12.51 8.27,-21.1 24.91,-21.1c4.68,0 7.51,0.43 10.01,1.09h21.22v9.24l-10.01,0.76c1.95,2.5 4.02,5.98 4.02,10.99zM153.62,90.75l0,0c0,0 0,0 0,0zM150.79,96.51c0,4.35 5.54,5.66 13.16,5.66c6.31,0 14.91,-0.44 14.91,-6.31c0,-3.49 -4.13,-3.7 -9.36,-4.03l-15.88,-1.08c-1.42,1.74 -2.83,3.58 -2.83,5.76zM165.59,40.81c-5.99,0 -10.44,2.94 -10.44,10.01c0,5.33 2.94,9.03 10.12,9.03c6.09,0 10.22,-3.59 10.22,-9.25c0,-6.42 -3.7,-9.79 -9.9,-9.79z" />
	<path id="Layer" class="shp0" d="M224.88,11.57c0,-6.2 -3.59,-9.57 -9.9,-9.57c-6.2,0 -9.79,3.37 -9.79,9.57c0,6.2 3.59,9.8 9.79,9.8c6.31,0 9.9,-3.59 9.9,-9.8zM200.94,86.74h31.01v-8.59l-5.55,-0.76c-1.64,-0.22 -1.74,-0.44 -1.74,-2.18v-45.14h-22.52l-1.2,8.81l5.87,2.07c1.09,0.32 1.42,1.09 1.42,2.28v31.98c0,1.64 -0.22,1.96 -1.74,2.18l-5.55,0.76v8.59" />
	<path id="Layer" class="shp0" d="M274.97,82.53l-2.94,-9.58c-2.61,0.98 -5.76,1.74 -8.81,1.74c-5.87,0 -7.4,-2.5 -7.4,-8.92v-26h16.21v-10.88h-15.34c-0.87,0 -0.87,-0.33 -0.87,-1.09v-15.45h-10.34c-1.2,11.86 -5,16.65 -14.58,17.74v9.68h7.61c0.87,0 0.87,0.44 0.87,1.09v28.5c0,12.3 4.89,17.52 17.84,17.52c6.2,0 13.06,-2.07 17.74,-4.35" />
	<path id="Layer" class="shp1" d="M113.78,53.98l-49.74,-49.74c-2.86,-2.86 -7.51,-2.86 -10.37,0l-10.33,10.33l13.1,13.1c3.05,-1.03 6.54,-0.34 8.96,2.09c2.44,2.44 3.12,5.96 2.07,9.02l12.63,12.63c3.06,-1.05 6.58,-0.37 9.02,2.07c3.41,3.41 3.41,8.93 0,12.35c-3.41,3.41 -8.94,3.41 -12.35,0c-2.56,-2.57 -3.2,-6.33 -1.9,-9.49l-11.78,-11.78l0,30.99c0.83,0.41 1.62,0.96 2.31,1.65c3.41,3.41 3.41,8.93 0,12.35c-3.41,3.41 -8.94,3.41 -12.34,0c-3.41,-3.41 -3.41,-8.94 0,-12.35c0.84,-0.84 1.82,-1.48 2.86,-1.9v-31.28c-1.04,-0.42 -2.02,-1.06 -2.86,-1.91c-2.58,-2.58 -3.21,-6.37 -1.88,-9.54l-12.92,-12.92l-34.11,34.1c-2.87,2.87 -2.87,7.51 0,10.38l49.74,49.74c2.86,2.86 7.51,2.86 10.38,0l49.51,-49.5c2.86,-2.87 2.86,-7.51 0,-10.38" />
</svg>