<svg xmlns="http://www.w3.org/2000/svg" viewBox="0 0 270 270" width="270" height="270">
	<style>
		tspan { white-space:pre }
		.shp0 { fill: #8a4182 } 
	</style>
	<g id="Layer">
		<path id="Layer" class="shp0" d="M124.27,112.33h19.79l4.92,-6.73v-52.73h-29.63v52.73z" />
		<path id="Layer" class="shp0" d="M111.51,135.85l6.12,-18.72l-4.92,-6.73l-50.43,-16.29l-9.15,28.02l50.44,16.3z" />
		<path id="Layer" class="shp0" d="M130.06,155.19l-16.01,-11.57l-7.96,2.57l-31.17,42.66l23.97,17.31l31.17,-42.66z" />
		<path id="Layer" class="shp0" d="M154.29,143.61l-16.02,11.57l0,8.32l31.17,42.66l23.97,-17.31l-31.17,-42.66z" />
		<path id="Layer" class="shp0" d="M150.7,117.13l6.12,18.72l7.96,2.57l50.43,-16.29l-9.16,-28.02l-50.44,16.3z" />
		<path id="Layer" class="shp0" d="M134.17,7.11c70.45,0 127.77,56.99 127.77,127.05c0,70.08 -57.32,127.09 -127.77,127.09c-70.46,0 -127.79,-57.01 -127.79,-127.09c0,-70.05 57.33,-127.05 127.79,-127.05zM134.17,32.83c-56.29,0 -101.91,45.36 -101.91,101.32c0,55.98 45.62,101.36 101.91,101.36c56.27,0 101.9,-45.38 101.9,-101.36c0,-55.96 -45.63,-101.32 -101.9,-101.32z" />
		<path id="Layer" class="shp0" d="M214.1,154.63l-38.34,-12.39l-2.53,7.76l38.34,12.39z" />
		<path id="Layer" class="shp0" d="M186.36,68.76l-6.64,-4.8l-23.69,32.43l6.64,4.8z" />
		<path id="Layer" class="shp0" d="M112.72,96.1l-23.69,-32.43l-6.64,4.8l23.69,32.43z" />
		<path id="Layer" class="shp0" d="M94.94,149.52l-2.54,-7.76l-38.33,12.38l2.54,7.76z" />
		<path id="Layer" class="shp0" d="M129.81,215.16h8.21v-40.08h-8.21v40.08z" />
	</g>
</svg>