<svg xmlns="http://www.w3.org/2000/svg" viewBox="0 0 700 700" width="700" height="700">
	<style>
		tspan { white-space:pre }
		.shp0 { fill: #f7df1e } 
		.shp1 { fill: #000000 } 
	</style>
	<path id="Layer" class="shp0" d="M34,664h630v-630h-630z" />
	<path id="Layer" class="shp1" d="M457.2,526.19c12.69,20.72 29.2,35.95 58.4,35.95c24.53,0 40.2,-12.26 40.2,-29.2c0,-20.3 -16.1,-27.49 -43.1,-39.3l-14.8,-6.35c-42.72,-18.2 -71.1,-41 -71.1,-89.2c0,-44.4 33.83,-78.2 86.7,-78.2c37.64,0 64.7,13.1 84.2,47.4l-46.1,29.6c-10.15,-18.2 -21.1,-25.37 -38.1,-25.37c-17.34,0 -28.33,11 -28.33,25.37c0,17.76 11,24.95 36.4,35.95l14.8,6.34c50.3,21.57 78.7,43.56 78.7,93c0,53.3 -41.87,82.5 -98.1,82.5c-54.98,0 -90.5,-26.2 -107.88,-60.54zM248.07,531.32c9.3,16.5 17.76,30.45 38.1,30.45c19.45,0 31.72,-7.61 31.72,-37.2v-201.3h59.2v202.1c0,61.3 -35.94,89.2 -88.4,89.2c-47.4,0 -74.85,-24.53 -88.81,-54.08z" />
</svg>