<svg xmlns="http://www.w3.org/2000/svg" viewBox="0 0 105 105" width="105" height="105">
	<style>
		tspan { white-space:pre }
		.shp0 { fill: #21609b } 
	</style>
	<g id="Layer">
		<g id="Layer">
			<path id="Layer" class="shp0" d="M94.71,72.46l-0.4,1.04c-6.85,13.34 -18.99,21.52 -36.3,21.89c-8.09,0.17 -15.81,-1.91 -20.84,-4.17c-10.87,-4.89 -20.02,-13.94 -25.01,-23.62c-7.16,-13.87 -8.46,-33.18 6.44,-47.59c0.23,0 -1.81,3.13 -1.58,3.13l-0.41,1.33c-10.73,33.61 22.34,62.41 54.49,59.11c7.73,-0.79 17.58,-5.02 23.62,-11.12z" />
			<path id="Layer" class="shp0" d="M75.25,58.57c8.09,0.05 16.54,-3.73 21.54,-9.03c-4.38,11.11 -17.05,18.25 -34.04,15.98c-14.23,-1.9 -27.78,-16.22 -29.18,-30.57c-1.02,-10.44 2.62,-16.67 8.61,-24.23c-2.08,3.95 -2.86,7 -3.06,8.95c-2.28,22.59 18.04,38.79 36.13,38.91z" />
			<path id="Layer" class="shp0" d="M95.98,30.51c-1.26,2.88 -8.5,8.33 -11.69,9.01c-12.66,2.7 -20.77,-3.31 -25.01,-10.14c-0.63,-1.02 -1.8,-3.81 -2.01,-4.52c-1.65,-5.6 -0.89,-14.07 4.02,-18.45c-1.48,4.17 -1.7,9.01 -0.92,12.16c0.47,1.9 1.91,5.23 3.35,7.32c2.62,3.81 4.28,4.73 7.64,6.75c1.52,0.91 3.14,1.64 3.84,1.84c3.19,0.94 9.92,3.41 20.77,-3.97" />
		</g>
	</g>
</svg>