<svg xmlns="http://www.w3.org/2000/svg" viewBox="0 0 70 70" width="70" height="70">
	<defs>
		<linearGradient id="grd1" gradientUnits="userSpaceOnUse"  x1="14.196" y1="9.519" x2="22.729" y2="-1.331">
			<stop offset="0" stop-color="#f69923"  />
			<stop offset="0.312" stop-color="#f79a23"  />
			<stop offset="0.838" stop-color="#e97826"  />
		</linearGradient>
		<linearGradient id="grd2" gradientUnits="userSpaceOnUse"  x1="26.045" y1="74.861" x2="13.528" y2="12.091">
			<stop offset="0.323" stop-color="#9e2064"  />
			<stop offset="0.63" stop-color="#c92037"  />
			<stop offset="0.751" stop-color="#cd2335"  />
			<stop offset="1" stop-color="#e97826"  />
		</linearGradient>
		<linearGradient id="grd3" gradientUnits="userSpaceOnUse"  x1="30.83" y1="66.028" x2="23.371" y2="28.623">
			<stop offset="0" stop-color="#282662"  />
			<stop offset="0.095" stop-color="#662e8d"  />
			<stop offset="0.788" stop-color="#9f2064"  />
			<stop offset="0.949" stop-color="#cd2032"  />
		</linearGradient>
		<linearGradient id="grd4" gradientUnits="userSpaceOnUse"  x1="24.757" y1="71.452" x2="12.24" y2="8.682">
			<stop offset="0.323" stop-color="#9e2064"  />
			<stop offset="0.63" stop-color="#c92037"  />
			<stop offset="0.751" stop-color="#cd2335"  />
			<stop offset="1" stop-color="#e97826"  />
		</linearGradient>
		<linearGradient id="grd5" gradientUnits="userSpaceOnUse"  x1="24.693" y1="66.705" x2="18.115" y2="33.717">
			<stop offset="0" stop-color="#282662"  />
			<stop offset="0.095" stop-color="#662e8d"  />
			<stop offset="0.788" stop-color="#9f2064"  />
			<stop offset="0.949" stop-color="#cd2032"  />
		</linearGradient>
		<linearGradient id="grd6" gradientUnits="userSpaceOnUse"  x1="31.254" y1="70.157" x2="18.737" y2="7.386">
			<stop offset="0.323" stop-color="#9e2064"  />
			<stop offset="0.63" stop-color="#c92037"  />
			<stop offset="0.751" stop-color="#cd2335"  />
			<stop offset="1" stop-color="#e97826"  />
		</linearGradient>
		<linearGradient id="grd7" gradientUnits="userSpaceOnUse"  x1="31.707" y1="74.115" x2="19.19" y2="11.344">
			<stop offset="0.323" stop-color="#9e2064"  />
			<stop offset="0.63" stop-color="#c92037"  />
			<stop offset="0.751" stop-color="#cd2335"  />
			<stop offset="1" stop-color="#e97826"  />
		</linearGradient>
		<linearGradient id="grd8" gradientUnits="userSpaceOnUse"  x1="33.186" y1="69.771" x2="20.669" y2="7.001">
			<stop offset="0.323" stop-color="#9e2064"  />
			<stop offset="0.63" stop-color="#c92037"  />
			<stop offset="0.751" stop-color="#cd2335"  />
			<stop offset="1" stop-color="#e97826"  />
		</linearGradient>
		<linearGradient id="grd9" gradientUnits="userSpaceOnUse"  x1="32.965" y1="69.815" x2="20.448" y2="7.045">
			<stop offset="0.323" stop-color="#9e2064"  />
			<stop offset="0.63" stop-color="#c92037"  />
			<stop offset="0.751" stop-color="#cd2335"  />
			<stop offset="1" stop-color="#e97826"  />
		</linearGradient>
		<linearGradient id="grd10" gradientUnits="userSpaceOnUse"  x1="0" y1="0" x2="0" y2="0">
			<stop offset="0.323" stop-color="#9e2064"  />
			<stop offset="0.63" stop-color="#c92037"  />
			<stop offset="0.751" stop-color="#cd2335"  />
			<stop offset="1" stop-color="#e97826"  />
		</linearGradient>
		<linearGradient id="grd11" gradientUnits="userSpaceOnUse"  x1="55.013" y1="9.656" x2="70.502" y2="7.701">
			<stop offset="0" stop-color="#f69923"  />
			<stop offset="0.312" stop-color="#f79a23"  />
			<stop offset="0.838" stop-color="#e97826"  />
		</linearGradient>
		<linearGradient id="grd12" gradientUnits="userSpaceOnUse"  x1="12.636" y1="71.671" x2="52.432" y2="11.195">
			<stop offset="0.323" stop-color="#9e2064"  />
			<stop offset="0.63" stop-color="#c92037"  />
			<stop offset="0.751" stop-color="#cd2335"  />
			<stop offset="1" stop-color="#e97826"  />
		</linearGradient>
		<linearGradient id="grd13" gradientUnits="userSpaceOnUse"  x1="23.505" y1="68.362" x2="47.22" y2="32.324">
			<stop offset="0" stop-color="#282662"  />
			<stop offset="0.095" stop-color="#662e8d"  />
			<stop offset="0.788" stop-color="#9f2064"  />
			<stop offset="0.949" stop-color="#cd2032"  />
		</linearGradient>
		<linearGradient id="grd14" gradientUnits="userSpaceOnUse"  x1="14.307" y1="67.904" x2="54.103" y2="7.427">
			<stop offset="0.323" stop-color="#9e2064"  />
			<stop offset="0.63" stop-color="#c92037"  />
			<stop offset="0.751" stop-color="#cd2335"  />
			<stop offset="1" stop-color="#e97826"  />
		</linearGradient>
		<linearGradient id="grd15" gradientUnits="userSpaceOnUse"  x1="18.028" y1="64.031" x2="38.942" y2="32.249">
			<stop offset="0" stop-color="#282662"  />
			<stop offset="0.095" stop-color="#662e8d"  />
			<stop offset="0.788" stop-color="#9f2064"  />
			<stop offset="0.949" stop-color="#cd2032"  />
		</linearGradient>
		<linearGradient id="grd16" gradientUnits="userSpaceOnUse"  x1="20.567" y1="72.022" x2="60.363" y2="11.546">
			<stop offset="0.323" stop-color="#9e2064"  />
			<stop offset="0.63" stop-color="#c92037"  />
			<stop offset="0.751" stop-color="#cd2335"  />
			<stop offset="1" stop-color="#e97826"  />
		</linearGradient>
		<linearGradient id="grd17" gradientUnits="userSpaceOnUse"  x1="17.787" y1="75.569" x2="57.583" y2="15.093">
			<stop offset="0.323" stop-color="#9e2064"  />
			<stop offset="0.63" stop-color="#c92037"  />
			<stop offset="0.751" stop-color="#cd2335"  />
			<stop offset="1" stop-color="#e97826"  />
		</linearGradient>
		<linearGradient id="grd18" gradientUnits="userSpaceOnUse"  x1="22.428" y1="73.247" x2="62.224" y2="12.771">
			<stop offset="0.323" stop-color="#9e2064"  />
			<stop offset="0.63" stop-color="#c92037"  />
			<stop offset="0.751" stop-color="#cd2335"  />
			<stop offset="1" stop-color="#e97826"  />
		</linearGradient>
		<linearGradient id="grd19" gradientUnits="userSpaceOnUse"  x1="22.215" y1="73.107" x2="62.011" y2="12.631">
			<stop offset="0.323" stop-color="#9e2064"  />
			<stop offset="0.63" stop-color="#c92037"  />
			<stop offset="0.751" stop-color="#cd2335"  />
			<stop offset="1" stop-color="#e97826"  />
		</linearGradient>
		<linearGradient id="grd20" gradientUnits="userSpaceOnUse"  x1="0" y1="0" x2="0" y2="0">
			<stop offset="0.323" stop-color="#9e2064"  />
			<stop offset="0.63" stop-color="#c92037"  />
			<stop offset="0.751" stop-color="#cd2335"  />
			<stop offset="1" stop-color="#e97826"  />
		</linearGradient>
		<clipPath clipPathUnits="userSpaceOnUse" id="cp1">
			<path d="null" />
		</clipPath>
	</defs>
	<style>
		tspan { white-space:pre }
		.shp0 { fill: url(#grd1) } 
		.shp1 { fill: none } 
		.shp2 { fill: #be202e } 
		.shp3 { opacity: 0.349;fill: #be202e } 
		.shp4 { fill: url(#grd2) } 
		.shp5 { fill: url(#grd3) } 
		.shp6 { fill: url(#grd4) } 
		.shp7 { fill: url(#grd5) } 
		.shp8 { fill: url(#grd6) } 
		.shp9 { fill: url(#grd7) } 
		.shp10 { fill: url(#grd8) } 
		.shp11 { fill: url(#grd9) } 
		.shp12 { fill: url(#grd10) } 
		.shp13 { fill: url(#grd11) } 
		.shp14 { fill: url(#grd12) } 
		.shp15 { fill: url(#grd13) } 
		.shp16 { fill: url(#grd14) } 
		.shp17 { fill: url(#grd15) } 
		.shp18 { fill: url(#grd16) } 
		.shp19 { fill: url(#grd17) } 
		.shp20 { fill: url(#grd18) } 
		.shp21 { fill: url(#grd19) } 
		.shp22 { fill: url(#grd20) } 
	</style>
	<g id="g7248">
		<path id="path7258" class="shp0" d="M13.67,3.61c-0.45,1.07 -0.81,3.39 -0.97,6.49l3.49,1.69c-0.06,-2.22 0.03,-4.31 0.25,-6.21c0.01,-0.14 0.03,-0.23 0.03,-0.23c0,0.08 -0.02,0.15 -0.03,0.23c-0.07,0.63 -0.22,2.59 -0.02,6.13c1.44,-1.18 3.52,-3.18 5.17,-4.88c-1.74,-3.55 -3.9,-4.17 -3.9,-4.17c0,0 -3.09,-1.25 -4.02,0.95z" />
		<path id="path7260" class="shp1" d="M22.75,21.19c0.01,-0.01 0.02,-0.01 0.02,-0.03l-0.2,0.17c0,0.02 -0.02,0.03 -0.02,0.05c0.07,-0.07 0.14,-0.13 0.2,-0.19z" />
		<path id="path7262" class="shp1" d="M24.58,27.56c0.11,-0.11 0.22,-0.22 0.31,-0.33c-0.09,0.11 -0.2,0.22 -0.31,0.33z" />
		<path id="path7264" class="shp1" d="M22.88,45.78c-0.01,-0.05 -0.03,-0.11 -0.04,-0.16c-0.3,-1.09 -0.59,-2.14 -0.87,-3.19c-0.31,-1.16 -0.6,-2.3 -0.88,-3.4c-0.29,-1.16 -0.56,-2.29 -0.82,-3.38c-0.27,-1.15 -0.53,-2.26 -0.76,-3.34c-0.19,-0.88 -0.37,-1.73 -0.54,-2.56c-0.06,-0.28 -0.11,-0.55 -0.16,-0.82c-0.1,-0.54 -0.21,-1.07 -0.31,-1.58c-0.09,-0.48 -0.18,-0.94 -0.27,-1.41c-0.03,-0.16 -0.05,-0.31 -0.08,-0.45c0,-0.03 -0.01,-0.05 -0.01,-0.08l-0.17,0.15l-0.35,-0.17c0.01,0.04 0.01,0.08 0.02,0.11c0.11,0.7 0.23,1.4 0.37,2.11c0.07,0.4 0.16,0.81 0.23,1.23c0.22,1.14 0.44,2.27 0.69,3.41c0.24,1.15 0.5,2.3 0.75,3.43c0.25,1.12 0.52,2.24 0.79,3.35c0.27,1.11 0.54,2.2 0.83,3.29c0.29,1.14 0.59,2.26 0.89,3.36c0.06,0.25 0.13,0.5 0.21,0.74c0.24,0.89 0.48,1.76 0.73,2.62l0.56,0.28l0.19,-0.17c0,-0.03 -0.01,-0.05 -0.02,-0.07c-0.37,-1.13 -0.68,-2.23 -0.99,-3.31z" />
		<path id="path7266" class="shp1" d="M24.49,27.64v0v0z" />
		<path id="path7268" class="shp2" d="M25.77,30.42c-0.16,0.18 -0.33,0.35 -0.5,0.52v0c0.09,-0.08 0.18,-0.18 0.26,-0.27c0.09,-0.08 0.17,-0.17 0.24,-0.25z" />
		<path id="path7270" class="shp3" d="M25.77,30.42c-0.16,0.18 -0.33,0.35 -0.5,0.52v0c0.09,-0.08 0.18,-0.18 0.26,-0.27c0.09,-0.08 0.17,-0.17 0.24,-0.25z" />
		<path id="path7272" class="shp2" d="M24.5,27.63v0c-0.01,0.01 -0.01,0.01 0,0c0.03,-0.02 0.05,-0.05 0.08,-0.07c0.11,-0.11 0.22,-0.22 0.31,-0.33c-0.12,0.13 -0.26,0.27 -0.39,0.41v0v0z" />
		<path id="path7274" class="shp3" d="M24.5,27.63v0c-0.01,0.01 -0.01,0.01 0,0c0.03,-0.02 0.05,-0.05 0.08,-0.07c0.11,-0.11 0.22,-0.22 0.31,-0.33c-0.12,0.13 -0.26,0.27 -0.39,0.41v0v0z" />
		<path id="path7286" class="shp4" d="M17.11,22.1c-0.16,-1.16 -0.31,-2.3 -0.44,-3.43c-0.14,-1.17 -0.24,-2.31 -0.32,-3.44c-0.01,-0.07 -0.01,-0.14 -0.01,-0.2c-0.08,-1.11 -0.13,-2.18 -0.16,-3.24l-3.48,-1.68c-0.01,0.21 -0.02,0.43 -0.03,0.66c-0.03,0.83 -0.06,1.72 -0.07,2.65c-0.01,1.05 0,2.15 0.02,3.3c0.02,1.06 0.07,2.16 0.13,3.28c0.06,0.96 0.12,1.93 0.2,2.92c0,0.04 0.01,0.07 0.01,0.11l4.66,2.36c-0.16,-1.1 -0.33,-2.2 -0.5,-3.28z" />
		<path id="path7298" class="shp5" d="M23.99,49.66c0.26,0.87 0.52,1.77 0.8,2.68c0.01,0.01 0,0.03 0.01,0.04c0.04,0.13 0.07,0.26 0.12,0.38c0.19,0.61 0.37,1.16 0.75,2.41c0.75,-0.16 1.69,0.18 2.68,0.64c-0.63,-0.76 -1.5,-1.27 -2.55,-1.38c2.85,-1.9 4.73,-4.36 4.47,-7.28c-0.03,-0.26 -0.06,-0.53 -0.12,-0.8c-0.04,1.12 -0.51,1.93 -1.87,2.82l-0.01,0.01l0.01,-0.01c1.29,-2.27 1.65,-3.81 1.49,-5.8c-0.04,-0.47 -0.1,-0.97 -0.18,-1.51c-0.41,2.97 -2.01,4.88 -4.33,6.02l-1.41,1.3c0.05,0.17 0.09,0.33 0.14,0.5z" />
		<path id="path7310" class="shp6" d="M22.18,45.68c-0.3,-1.11 -0.59,-2.23 -0.89,-3.36c-0.28,-1.09 -0.56,-2.18 -0.83,-3.29c-0.27,-1.11 -0.53,-2.23 -0.79,-3.35c-0.27,-1.14 -0.51,-2.28 -0.75,-3.43c-0.24,-1.13 -0.47,-2.28 -0.69,-3.41c-0.08,-0.41 -0.16,-0.81 -0.23,-1.23c-0.13,-0.7 -0.25,-1.4 -0.37,-2.11c-0.01,-0.04 -0.01,-0.08 -0.02,-0.11l-4.63,-2.37c0.01,0.07 0.02,0.15 0.02,0.22c0.09,1.05 0.18,2.12 0.31,3.19c0.12,1.09 0.26,2.18 0.42,3.28c0.14,0.93 0.28,1.85 0.44,2.78c0.03,0.18 0.07,0.38 0.1,0.56c0.21,1.15 0.44,2.27 0.69,3.3c0.28,1.18 0.57,2.29 0.87,3.32c0.2,0.68 0.4,1.33 0.6,1.94c0.17,0.52 0.37,1.04 0.55,1.55c0.44,1.2 0.93,2.37 1.46,3.52l4.68,2.37c-0.25,-0.86 -0.48,-1.74 -0.73,-2.62c-0.06,-0.25 -0.13,-0.49 -0.2,-0.75z" />
		<path id="path7322" class="shp7" d="M18.49,46.84c0.65,1.38 1.36,2.71 2.16,3.98c0.03,0.04 0.05,0.09 0.08,0.13c-1.29,-0.52 -3.59,-0.28 -3.57,-0.28c2.37,0.82 4.45,1.83 5.76,3.35c-0.52,0.57 -1.5,1.01 -2.72,1.36c1.69,0.18 2.64,-0.11 2.98,-0.26c-0.89,0.74 -1.38,2.09 -1.82,3.54c1,-1.63 1.99,-2.71 2.95,-3.12c1.41,4.66 3.1,9.72 4.98,15.02c0.32,-0.41 0.35,-0.86 0.22,-1.32c-0.35,-0.95 -2.58,-7.26 -5.12,-15.82c-0.07,-0.24 -0.14,-0.49 -0.22,-0.74c-0.02,-0.07 -0.04,-0.13 -0.06,-0.2c-0.26,-0.9 -0.53,-1.82 -0.8,-2.77c-0.06,-0.22 -0.12,-0.43 -0.18,-0.65l-0.01,-0.01l-4.68,-2.37c0.02,0.06 0.03,0.11 0.06,0.16z" />
		<path id="path7334" class="shp8" d="M18.15,25.48c0.03,0.16 0.06,0.3 0.08,0.45c0.09,0.46 0.17,0.93 0.27,1.41c0.1,0.52 0.21,1.04 0.31,1.58c0.05,0.27 0.1,0.54 0.16,0.82c0.17,0.83 0.35,1.68 0.54,2.56c0.23,1.08 0.49,2.19 0.76,3.34c0.26,1.09 0.53,2.23 0.82,3.38c0.28,1.1 0.57,2.23 0.88,3.4c0.27,1.03 0.57,2.1 0.87,3.19c0.01,0.05 0.03,0.11 0.04,0.16c0.3,1.07 0.62,2.18 0.94,3.31c0,0.03 0.01,0.05 0.02,0.07l1.41,-1.3c-0.04,0.01 -0.06,0.03 -0.11,0.05c1.68,-1.58 3.11,-4.76 3.44,-7.62c0.15,-1.32 0.14,-2.72 -0.04,-4.25c-0.13,-1.14 -0.36,-2.34 -0.68,-3.63c-0.28,-1.12 -0.62,-2.31 -1.04,-3.56c-0.26,0.53 -0.63,1.05 -1.08,1.56c-0.08,0.09 -0.16,0.18 -0.24,0.27c-0.08,0.09 -0.17,0.17 -0.26,0.27v0v0v0c1.24,-1.92 1.38,-3.99 1.02,-6.13c-0.22,0.64 -0.67,1.58 -1.4,2.42c-0.09,0.11 -0.2,0.22 -0.31,0.33c-0.03,0.02 -0.05,0.05 -0.09,0.08v0v0v0v0v0c0.41,-0.68 0.71,-1.33 0.91,-1.99c0.05,-0.14 0.08,-0.28 0.11,-0.42c0.05,-0.21 0.08,-0.43 0.12,-0.64c0.01,-0.14 0.03,-0.27 0.05,-0.42c0.02,-0.33 0.03,-0.67 -0.01,-1.01c-0.01,-0.11 -0.01,-0.21 -0.03,-0.32c-0.03,-0.16 -0.05,-0.3 -0.08,-0.44c-0.11,-0.65 -0.24,-1.22 -0.36,-1.72c-0.06,-0.25 -0.12,-0.47 -0.19,-0.67c-0.03,-0.08 -0.04,-0.16 -0.07,-0.24c-0.08,-0.22 -0.14,-0.43 -0.2,-0.6c-0.1,-0.25 -0.19,-0.45 -0.26,-0.59v0v0c-0.02,0.09 -0.05,0.19 -0.1,0.28c-0.29,0.68 -0.97,1.62 -1.59,2.28l1.3,-1.19l-1.3,1.19c-0.01,0.01 -0.02,0.01 -0.02,0.03c-0.06,0.06 -0.13,0.12 -0.19,0.2c0,-0.02 0.02,-0.03 0.02,-0.05l-4.45,4.08c0.04,0.03 0.04,0.06 0.04,0.07z" />
		<path id="path7346" class="shp9" d="M16.43,11.71c0.05,0.98 0.14,2.07 0.25,3.29c0.01,0.07 0.01,0.13 0.02,0.19c0.1,1.06 0.23,2.2 0.4,3.45c0.14,1.07 0.3,2.21 0.49,3.44c0.16,1.06 0.35,2.17 0.56,3.34l4.45,-4.08c0.93,-1.68 1.13,-2.73 1.12,-4.03c-0.01,-0.35 -0.03,-0.72 -0.05,-1.09c-0.07,-1.14 -0.21,-2.35 -0.4,-3.51c-0.18,-1.13 -0.41,-2.22 -0.66,-3.15c-0.16,-0.6 -0.33,-1.14 -0.51,-1.6c-0.16,-0.4 -0.32,-0.76 -0.49,-1.11c-1.64,1.69 -3.72,3.69 -5.17,4.87z" />
		<path id="path7348" class="shp2" d="M25.28,30.94v0c0.09,-0.1 0.18,-0.18 0.26,-0.27c-0.1,0.09 -0.18,0.18 -0.26,0.27z" />
		<path id="path7350" class="shp3" d="M25.28,30.94v0c0.09,-0.1 0.18,-0.18 0.26,-0.27c-0.1,0.09 -0.18,0.18 -0.26,0.27z" />
		<path id="path7362" class="shp10" d="M25.28,30.94v0c0.09,-0.1 0.18,-0.18 0.26,-0.27c-0.1,0.09 -0.18,0.18 -0.26,0.27z" />
		<path id="path7364" class="shp2" d="M24.49,27.64c0.04,-0.03 0.06,-0.06 0.09,-0.08c-0.04,0.03 -0.06,0.06 -0.09,0.08z" />
		<path id="path7366" class="shp3" d="M24.49,27.64c0.04,-0.03 0.06,-0.06 0.09,-0.08c-0.04,0.03 -0.06,0.06 -0.09,0.08z" />
		<path id="path7378" class="shp11" d="M24.49,27.64c0.04,-0.03 0.06,-0.06 0.09,-0.08c-0.04,0.03 -0.06,0.06 -0.09,0.08z" />
		<path id="path7380" class="shp2" d="M24.5,27.63v0v0v0v0z" />
		<path id="path7382" class="shp3" d="M24.5,27.63v0v0v0v0z" />
		<path id="path7394" class="shp12" d="M24.5,27.63v0v0v0v0z" />
	</g>
	<g id="g4701">
		<path id="path4710" class="shp13" d="M59.29,4.48c-1.21,0.5 -3.34,2.09 -5.94,4.46l1.47,4.13c1.72,-1.84 3.45,-3.45 5.14,-4.8c0.12,-0.1 0.2,-0.16 0.2,-0.16c-0.06,0.06 -0.14,0.1 -0.2,0.16c-0.55,0.45 -2.23,1.91 -4.88,4.92c2.1,0.2 5.36,0.24 8.04,0.18c1.42,-4.24 0.17,-6.46 0.17,-6.46c0,0 -1.5,-3.46 -4,-2.43z" />
		<path id="path4712" class="shp1" d="M52.63,25.85c0.01,0 0.03,0 0.04,-0.01l-0.3,-0.02c-0.02,0.01 -0.04,0.01 -0.06,0.02c0.11,0 0.22,0 0.31,0z" />
		<path id="path4714" class="shp1" d="M49.03,32.43c0.18,0 0.35,0 0.52,-0.02c-0.17,0.02 -0.34,0.02 -0.52,0.02z" />
		<path id="path4716" class="shp1" d="M33.2,45.75c0.03,-0.05 0.06,-0.11 0.09,-0.16c0.62,-1.12 1.23,-2.19 1.83,-3.26c0.67,-1.18 1.34,-2.32 2,-3.44c0.69,-1.16 1.37,-2.29 2.03,-3.38c0.7,-1.15 1.37,-2.24 2.04,-3.29c0.55,-0.86 1.07,-1.69 1.6,-2.49c0.18,-0.27 0.35,-0.53 0.52,-0.79c0.35,-0.52 0.68,-1.03 1.01,-1.52c0.31,-0.46 0.61,-0.9 0.9,-1.35c0.1,-0.15 0.21,-0.3 0.29,-0.43c0.02,-0.02 0.03,-0.05 0.05,-0.07l-0.26,-0.01l-0.14,-0.41c-0.02,0.04 -0.05,0.07 -0.07,0.11c-0.46,0.65 -0.93,1.32 -1.38,1.99c-0.26,0.38 -0.52,0.78 -0.8,1.17c-0.73,1.09 -1.44,2.17 -2.15,3.29c-0.72,1.11 -1.43,2.24 -2.12,3.36c-0.69,1.11 -1.36,2.21 -2.02,3.32c-0.66,1.11 -1.31,2.21 -1.95,3.31c-0.67,1.15 -1.33,2.29 -1.95,3.42c-0.15,0.25 -0.29,0.51 -0.42,0.76c-0.51,0.91 -1.01,1.8 -1.49,2.7l0.23,0.67l0.28,0.01c0.02,-0.02 0.03,-0.05 0.04,-0.08c0.6,-1.2 1.22,-2.34 1.83,-3.45z" />
		<path id="path4718" class="shp1" d="M48.9,32.42v0v0z" />
		<path id="path4720" class="shp2" d="M47.73,35.68c-0.27,0.01 -0.54,0.02 -0.82,0.02v0c0.13,0.01 0.28,0 0.42,-0.01c0.13,0.01 0.27,0 0.39,-0.01z" />
		<path id="path4722" class="shp3" d="M47.73,35.68c-0.27,0.01 -0.54,0.02 -0.82,0.02v0c0.13,0.01 0.28,0 0.42,-0.01c0.13,0.01 0.27,0 0.39,-0.01z" />
		<path id="path4724" class="shp2" d="M48.91,32.42v0c-0.01,0 -0.01,0 0,0c0.04,0.01 0.08,0 0.12,0c0.18,0 0.35,0 0.52,-0.02c-0.2,0.01 -0.42,0.01 -0.64,0.01v0v0z" />
		<path id="path4726" class="shp3" d="M48.91,32.42v0c-0.01,0 -0.01,0 0,0c0.04,0.01 0.08,0 0.12,0c0.18,0 0.35,0 0.52,-0.02c-0.2,0.01 -0.42,0.01 -0.64,0.01v0v0z" />
		<path id="path4737" class="shp14" d="M47.36,22.09c0.79,-1.06 1.58,-2.1 2.37,-3.11c0.82,-1.05 1.64,-2.05 2.48,-3.03c0.05,-0.06 0.1,-0.12 0.15,-0.17c0.82,-0.95 1.63,-1.86 2.45,-2.73l-1.47,-4.12c-0.17,0.16 -0.36,0.33 -0.55,0.5c-0.69,0.64 -1.42,1.34 -2.16,2.08c-0.84,0.84 -1.7,1.73 -2.6,2.67c-0.82,0.87 -1.66,1.79 -2.5,2.74c-0.72,0.82 -1.43,1.65 -2.16,2.5c-0.03,0.04 -0.05,0.06 -0.08,0.1l1.88,5.6c0.75,-1.02 1.48,-2.03 2.21,-3.04z" />
		<path id="path4748" class="shp15" d="M31.01,49.75c-0.49,0.9 -0.99,1.83 -1.48,2.79c0,0.01 -0.02,0.02 -0.02,0.04c-0.07,0.14 -0.15,0.26 -0.21,0.4c-0.34,0.64 -0.63,1.22 -1.31,2.53c0.73,0.47 1.22,1.49 1.65,2.64c0.1,-1.11 -0.2,-2.21 -0.95,-3.14c3.81,0.74 7.27,0.25 9.38,-2.31c0.18,-0.23 0.37,-0.47 0.54,-0.73c-0.93,0.87 -1.95,1.15 -3.75,0.78l-0.01,0l0.01,0c2.84,-0.8 4.35,-1.76 5.81,-3.49c0.34,-0.41 0.7,-0.86 1.05,-1.36c-2.69,2.06 -5.5,2.34 -8.27,1.4l-2.17,-0.07c-0.09,0.18 -0.19,0.34 -0.28,0.51z" />
		<path id="path4759" class="shp16" d="M32.71,45.11c0.64,-1.13 1.29,-2.26 1.95,-3.42c0.64,-1.1 1.29,-2.2 1.95,-3.31c0.66,-1.11 1.34,-2.22 2.02,-3.32c0.69,-1.13 1.4,-2.25 2.12,-3.36c0.7,-1.1 1.43,-2.2 2.15,-3.29c0.26,-0.4 0.52,-0.78 0.8,-1.17c0.45,-0.67 0.91,-1.33 1.38,-1.99c0.02,-0.04 0.05,-0.07 0.07,-0.11l-1.85,-5.59c-0.05,0.06 -0.1,0.13 -0.16,0.19c-0.76,0.92 -1.53,1.85 -2.28,2.81c-0.77,0.97 -1.52,1.96 -2.27,2.98c-0.63,0.86 -1.24,1.72 -1.86,2.59c-0.12,0.17 -0.24,0.36 -0.36,0.53c-0.74,1.1 -1.44,2.17 -2.07,3.21c-0.71,1.17 -1.35,2.3 -1.93,3.36c-0.37,0.7 -0.73,1.38 -1.06,2.04c-0.27,0.56 -0.53,1.13 -0.79,1.69c-0.6,1.32 -1.14,2.65 -1.62,3.99l1.89,5.63c0.48,-0.89 0.99,-1.78 1.49,-2.7c0.15,-0.25 0.29,-0.5 0.44,-0.76z" />
		<path id="path4770" class="shp17" d="M28.82,43.11c-0.58,1.62 -1.06,3.26 -1.43,4.92c-0.01,0.05 -0.03,0.12 -0.04,0.17c-0.63,-1.45 -2.67,-3.08 -2.66,-3.06c1.25,2.54 2.13,5 1.97,7.27c-0.87,0.05 -2.01,-0.38 -3.27,-1.06c1.22,1.49 2.21,2.01 2.61,2.16c-1.3,-0.11 -2.77,0.58 -4.27,1.41c2.1,-0.52 3.75,-0.6 4.85,-0.17c-2.57,4.87 -5.22,10.28 -7.93,16.04c0.58,-0.08 0.97,-0.41 1.23,-0.89c0.48,-1.04 3.69,-7.89 8.45,-16.81c0.13,-0.25 0.28,-0.5 0.41,-0.77c0.04,-0.08 0.07,-0.14 0.11,-0.21c0.5,-0.93 1.02,-1.88 1.56,-2.86c0.13,-0.23 0.24,-0.44 0.37,-0.66l0,-0.01l-1.89,-5.63c-0.04,0.06 -0.06,0.11 -0.08,0.18z" />
		<path id="path4781" class="shp18" d="M45.51,25.65c-0.1,0.15 -0.19,0.28 -0.29,0.43c-0.3,0.44 -0.6,0.89 -0.9,1.35c-0.33,0.49 -0.66,1 -1.01,1.52c-0.17,0.26 -0.35,0.52 -0.52,0.79c-0.52,0.8 -1.05,1.64 -1.6,2.49c-0.67,1.05 -1.35,2.15 -2.04,3.29c-0.66,1.08 -1.34,2.22 -2.03,3.38c-0.65,1.11 -1.32,2.25 -2,3.44c-0.6,1.05 -1.21,2.14 -1.83,3.26c-0.03,0.05 -0.06,0.11 -0.09,0.16c-0.61,1.1 -1.24,2.25 -1.87,3.41c-0.02,0.02 -0.03,0.05 -0.04,0.08l2.17,0.07c-0.04,-0.02 -0.08,-0.02 -0.13,-0.05c2.61,0.06 6.29,-1.36 8.82,-3.4c1.17,-0.94 2.27,-2.08 3.34,-3.46c0.8,-1.02 1.57,-2.17 2.34,-3.47c0.67,-1.12 1.34,-2.35 1.99,-3.69c-0.63,0.22 -1.34,0.35 -2.11,0.4c-0.14,0.01 -0.27,0.01 -0.41,0.02c-0.14,0.01 -0.27,0 -0.42,0.01v0v0v0c2.52,-0.57 4.28,-2.11 5.69,-4.13c-0.69,0.33 -1.79,0.74 -3.05,0.84c-0.17,0.02 -0.34,0.02 -0.52,0.02c-0.04,-0.01 -0.08,0 -0.13,-0.01v0v0v0v0v0c0.87,-0.22 1.63,-0.51 2.31,-0.88c0.15,-0.07 0.28,-0.16 0.42,-0.25c0.21,-0.13 0.41,-0.28 0.6,-0.43c0.12,-0.1 0.25,-0.19 0.37,-0.3c0.28,-0.24 0.55,-0.52 0.8,-0.82c0.08,-0.1 0.16,-0.18 0.23,-0.28c0.1,-0.15 0.2,-0.28 0.29,-0.42c0.43,-0.61 0.78,-1.17 1.07,-1.67c0.15,-0.25 0.27,-0.48 0.39,-0.69c0.04,-0.09 0.09,-0.16 0.13,-0.25c0.12,-0.24 0.23,-0.45 0.31,-0.65c0.12,-0.28 0.21,-0.51 0.26,-0.68v0v0c-0.09,0.05 -0.19,0.11 -0.31,0.14c-0.78,0.32 -2.07,0.54 -3.09,0.58l2,0.08l-2,-0.08c-0.01,0 -0.03,0 -0.04,0.01c-0.09,0 -0.2,0 -0.31,0.01c0.02,-0.01 0.04,-0.01 0.06,-0.02l-6.82,-0.26c0.01,0.06 -0.01,0.08 -0.03,0.09z" />
		<path id="path4792" class="shp19" d="M55.07,13.19c-0.73,0.83 -1.54,1.78 -2.41,2.85c-0.05,0.06 -0.1,0.11 -0.13,0.17c-0.76,0.93 -1.56,1.95 -2.42,3.09c-0.74,0.98 -1.52,2.01 -2.33,3.16c-0.71,0.98 -1.44,2.03 -2.21,3.13l6.82,0.26c2.08,-0.62 3.08,-1.3 4.1,-2.35c0.27,-0.29 0.55,-0.6 0.83,-0.92c0.85,-0.97 1.7,-2.06 2.47,-3.15c0.75,-1.06 1.43,-2.11 1.97,-3.06c0.35,-0.61 0.63,-1.18 0.86,-1.69c0.19,-0.45 0.34,-0.87 0.49,-1.28c-2.67,0.06 -5.93,0.01 -8.03,-0.19z" />
		<path id="path4794" class="shp2" d="M46.91,35.71v0c0.15,-0.01 0.28,0 0.42,-0.01c-0.15,-0.01 -0.28,0 -0.42,0.01z" />
		<path id="path4796" class="shp3" d="M46.91,35.71v0c0.15,-0.01 0.28,0 0.42,-0.01c-0.15,-0.01 -0.28,0 -0.42,0.01z" />
		<path id="path4807" class="shp20" d="M46.91,35.71v0c0.15,-0.01 0.28,0 0.42,-0.01c-0.15,-0.01 -0.28,0 -0.42,0.01z" />
		<path id="path4809" class="shp2" d="M48.9,32.42c0.05,0.01 0.09,0 0.13,0.01c-0.05,-0.01 -0.09,0 -0.13,-0.01z" />
		<path id="path4811" class="shp3" d="M48.9,32.42c0.05,0.01 0.09,0 0.13,0.01c-0.05,-0.01 -0.09,0 -0.13,-0.01z" />
		<path id="path4822" class="shp21" d="M48.9,32.42c0.05,0.01 0.09,0 0.13,0.01c-0.05,-0.01 -0.09,0 -0.13,-0.01z" />
		<path id="path4824" class="shp2" d="M48.91,32.42v0v0v0v0z" />
		<path id="path4826" class="shp3" d="M48.91,32.42v0v0v0v0z" />
		<path id="path4837" class="shp22" d="M48.91,32.42v0v0v0v0z" />
	</g>
	<g id="g4845">
	</g>
	<g id="g4847">
	</g>
	<g id="g4849">
	</g>
	<g id="g4851">
	</g>
	<g id="g4853">
	</g>
	<g id="g4855" clip-path="url(#cp1)">
	</g>
</svg>