<svg xmlns="http://www.w3.org/2000/svg" viewBox="0 0 185 185" width="185" height="185">
	<style>
		tspan { white-space:pre }
		.shp0 { fill: #8d6748 } 
		.shp1 { fill: #ffffff } 
	</style>
	<path id="XMLID_229_" class="shp0" d="M165.47,139.9l-68.7,39.69c-2.96,1.72 -6.58,1.72 -9.54,0l-68.7,-39.69c-2.96,-1.72 -4.77,-4.87 -4.77,-8.21v-79.39c0,-3.44 1.81,-6.49 4.77,-8.21l68.7,-39.69c2.96,-1.72 6.58,-1.72 9.54,0l68.7,39.69c2.96,1.72 4.77,4.87 4.77,8.21v79.39c-0.1,3.34 -1.91,6.49 -4.77,8.21z" />
	<path id="XMLID_262_" class="shp1" d="M91.9,18.05c0.95,0 1.81,0.29 2.67,0.76l59.35,34.26c1.62,0.95 2.67,2.77 2.67,4.68v68.51c0,1.91 -1.05,3.72 -2.67,4.68l-59.35,34.26c-0.86,0.48 -1.72,0.76 -2.67,0.76c-0.95,0 -1.91,-0.29 -2.67,-0.76l-59.35,-34.26c-1.62,-0.95 -2.67,-2.77 -2.67,-4.68v-68.51c0,-1.91 1.05,-3.72 2.67,-4.68l59.35,-34.26c0.86,-0.48 1.81,-0.76 2.67,-0.76zM91.9,15.19c-1.43,0 -2.86,0.38 -4.1,1.15l-59.35,34.26c-2.58,1.43 -4.1,4.2 -4.1,7.06v68.51c0,2.96 1.53,5.63 4.1,7.06l59.35,34.26c1.24,0.76 2.67,1.15 4.1,1.15c1.43,0 2.86,-0.38 4.1,-1.15l59.35,-34.26c2.58,-1.43 4.1,-4.2 4.1,-7.06v-68.51c0,-2.96 -1.53,-5.63 -4.1,-7.06l-59.35,-34.26c-1.24,-0.76 -2.67,-1.15 -4.1,-1.15z" />
	<g id="XMLID_228_">
		<g id="XMLID_223_">
			<g id="XMLID_295_">
				<path id="path8" class="shp1" d="M95.1,77.5c-0.19,0.19 -0.38,0.29 -0.67,0.29h-8.02c-0.29,0 -0.48,-0.1 -0.67,-0.29c-4.77,-5.44 -5.25,-16.6 -5.25,-19.85c0,-0.57 0.48,-0.95 0.95,-0.95h17.94c0.57,0 0.95,0.48 0.95,0.95c0,3.34 -0.48,14.5 -5.25,19.85zM94.05,74.73c3.24,-3.91 3.72,-11.45 3.72,-14.12c0,-0.57 -0.48,-0.95 -0.95,-0.95h-12.6c-0.57,0 -0.95,0.48 -0.95,0.95c0.1,2.67 0.48,10.31 3.72,14.12c0.19,0.19 0.38,0.29 0.67,0.29h5.63c0.29,0 0.48,-0.1 0.76,-0.29z" />
			</g>
		</g>
		<path id="XMLID_225_" class="shp1" d="M92.24,54.79c0,0 3.44,-2 1.34,-5.63c-1.24,-1.91 -1.81,-3.53 -1.34,-4.2c-1.24,1.53 -3.34,3.15 -1.05,6.58c0.76,0.86 1.15,2.67 1.05,3.24z" />
		<path id="XMLID_224_" class="shp1" d="M88.42,55.07c0,0 2.29,-1.34 0.86,-3.82c-0.86,-1.24 -1.24,-2.39 -0.86,-2.77c-0.86,1.05 -2.19,2.1 -0.67,4.48c0.48,0.48 0.67,1.72 0.67,2.1z" />
		<path id="XMLID_227_" class="shp1" d="M96.25,66.14c-0.38,2.58 -1.15,5.53 -2.77,7.44c-0.19,0.19 -0.38,0.29 -0.57,0.29h-4.77c-0.19,0 -0.48,-0.1 -0.57,-0.29c-1.15,-1.43 -1.91,-3.34 -2.39,-5.34c0,0 5.53,0.76 8.68,-0.38c2.29,-0.86 2.39,-1.72 2.39,-1.72z" />
	</g>
	<g id="g13">
		<path id="path15" class="shp1" d="M33.55,81.6h3.53l5.82,8.97l5.82,-8.97h3.53v19.08h-3.34v-13.65l-6.01,8.97h-0.1l-5.92,-8.87v13.65h-3.34z" />
		<path id="path17" class="shp1" d="M69.53,100.97c-1.43,0 -2.77,-0.29 -4.01,-0.76c-1.24,-0.48 -2.29,-1.24 -3.15,-2.1c-0.86,-0.86 -1.53,-1.91 -2,-3.15c-0.48,-1.15 -0.76,-2.48 -0.76,-3.82v-0.1c0,-1.34 0.29,-2.58 0.76,-3.82c0.48,-1.15 1.15,-2.19 2.1,-3.15c0.86,-0.86 1.91,-1.62 3.15,-2.1c1.24,-0.57 2.58,-0.76 4.01,-0.76c1.43,0 2.77,0.29 4.01,0.76c1.24,0.48 2.29,1.24 3.15,2.1c0.86,0.86 1.53,1.91 2,3.15c0.48,1.15 0.76,2.48 0.76,3.82v0.1c0,1.34 -0.29,2.58 -0.76,3.82c-0.48,1.15 -1.15,2.19 -2.1,3.15c-0.86,0.86 -1.91,1.62 -3.15,2.1c-1.24,0.57 -2.58,0.76 -4.01,0.76zM69.53,97.92c0.95,0 1.81,-0.19 2.58,-0.57c0.76,-0.38 1.43,-0.86 2,-1.43c0.57,-0.57 0.95,-1.34 1.34,-2.1c0.29,-0.86 0.48,-1.72 0.48,-2.58v-0.1c0,-0.95 -0.19,-1.81 -0.48,-2.67c-0.29,-0.86 -0.76,-1.53 -1.34,-2.19c-0.57,-0.57 -1.24,-1.05 -2,-1.43c-0.76,-0.38 -1.62,-0.57 -2.58,-0.57c-0.95,0 -1.81,0.19 -2.58,0.57c-0.76,0.38 -1.43,0.86 -2,1.43c-0.57,0.57 -0.95,1.34 -1.34,2.1c-0.29,0.86 -0.48,1.72 -0.48,2.58v0.1c0,0.95 0.19,1.81 0.48,2.67c0.29,0.86 0.76,1.53 1.34,2.19c0.57,0.57 1.24,1.05 2,1.43c0.76,0.38 1.72,0.57 2.58,0.57z" />
		<path id="path19" class="shp1" d="M95.67,100.97c-1.43,0 -2.67,-0.29 -3.82,-0.76c-1.15,-0.48 -2.19,-1.24 -3.05,-2.1c-0.86,-0.86 -1.53,-1.91 -2,-3.15c-0.48,-1.24 -0.76,-2.48 -0.76,-3.82v-0.1c0,-1.34 0.29,-2.67 0.76,-3.82c0.48,-1.15 1.15,-2.19 2,-3.15c0.86,-0.86 1.91,-1.62 3.15,-2.1c1.24,-0.48 2.48,-0.76 4.01,-0.76c0.86,0 1.62,0.1 2.39,0.19c0.76,0.19 1.34,0.38 2,0.57c0.57,0.29 1.15,0.57 1.62,0.95c0.48,0.38 0.95,0.76 1.43,1.24l-2.19,2.48c-0.76,-0.67 -1.53,-1.24 -2.39,-1.72c-0.86,-0.48 -1.81,-0.67 -2.96,-0.67c-0.95,0 -1.72,0.19 -2.48,0.57c-0.76,0.38 -1.43,0.86 -2,1.43c-0.57,0.57 -0.95,1.34 -1.34,2.1c-0.29,0.86 -0.48,1.72 -0.48,2.58v0.1c0,0.95 0.19,1.81 0.48,2.67c0.29,0.86 0.76,1.53 1.34,2.19c0.57,0.57 1.24,1.15 2,1.43c0.76,0.29 1.62,0.57 2.48,0.57c1.15,0 2.19,-0.19 2.96,-0.67c0.76,-0.48 1.62,-1.05 2.48,-1.81l2.19,2.19c-0.48,0.57 -0.95,0.95 -1.53,1.43c-0.57,0.48 -1.15,0.76 -1.72,1.05c-0.57,0.29 -1.34,0.57 -2,0.67c-0.86,0.19 -1.72,0.19 -2.58,0.19z" />
		<path id="path21" class="shp1" d="M110.18,81.6h3.34v7.92h9.16v-7.92h3.34v19.08h-3.34v-8.02h-9.16v8.02h-3.34z" />
		<path id="path23" class="shp1" d="M140.81,81.5h3.05l8.4,19.18h-3.53l-1.91,-4.58h-8.97l-2,4.58h-3.44zM145.58,93.15l-3.24,-7.63l-3.24,7.63z" />
	</g>
	<path id="XMLID_444_" class="shp1" d="M31.17,107.74h121.66v-1.05h-121.66z" />
	<path id="XMLID_446_" class="shp1" d="M152.83,70.82h-51.72c0,0.38 -0.1,0.67 -0.1,1.05h51.81v-1.05z" />
	<path id="XMLID_448_" class="shp1" d="M31.17,70.82v1.05h48.76c0,-0.38 -0.1,-0.67 -0.1,-1.05c0,0 -48.66,0 -48.66,0z" />
</svg>