<svg xmlns="http://www.w3.org/2000/svg" viewBox="0 0 143 143" width="143" height="143">
	<style>
		tspan { white-space:pre }
		.shp0 { fill: #ffffff } 
		.shp1 { fill: #a6a385 } 
		.shp2 { fill: #499d4a } 
		.shp3 { fill: #58aa50 } 
	</style>
	<g id="Layer">
		<g id="Layer">
			<g id="Layer">
				<path id="Layer" class="shp0" d="M74.05,142.32l-3.78,-1.29c0,0 0.46,-19.29 -6.46,-20.67c-4.61,-5.35 0.74,-227.01 17.35,-0.74c0,0 -5.72,2.86 -6.74,7.75c-1.11,4.8 -0.37,14.95 -0.37,14.95z" />
				<path id="Layer" class="shp1" d="M74.05,142.32l-3.78,-1.29c0,0 0.46,-19.29 -6.46,-20.67c-4.61,-5.35 0.74,-227.01 17.35,-0.74c0,0 -5.72,2.86 -6.74,7.75c-1.11,4.8 -0.37,14.95 -0.37,14.95z" />
				<path id="Layer" class="shp0" d="M76.08,123.68c0,0 33.13,-21.78 25.38,-67.09c-7.47,-32.94 -25.1,-43.74 -27.04,-47.89c-2.12,-2.95 -4.15,-8.12 -4.15,-8.12l1.38,91.64c0,0.09 -2.86,28.05 4.43,31.47z" />
				<path id="Layer" class="shp2" d="M76.08,123.68c0,0 33.13,-21.78 25.38,-67.09c-7.47,-32.94 -25.1,-43.74 -27.04,-47.89c-2.12,-2.95 -4.15,-8.12 -4.15,-8.12l1.38,91.64c0,0.09 -2.86,28.05 4.43,31.47z" />
				<path id="Layer" class="shp0" d="M68.33,124.88c0,0 -31.1,-21.23 -29.25,-58.6c1.75,-37.37 23.72,-55.74 27.96,-59.06c2.77,-2.95 2.86,-4.06 3.05,-7.01c1.94,4.15 1.57,62.11 1.85,68.93c0.83,26.3 -1.48,50.76 -3.6,55.74z" />
				<path id="Layer" class="shp3" d="M68.33,124.88c0,0 -31.1,-21.23 -29.25,-58.6c1.75,-37.37 23.72,-55.74 27.96,-59.06c2.77,-2.95 2.86,-4.06 3.05,-7.01c1.94,4.15 1.57,62.11 1.85,68.93c0.83,26.3 -1.48,50.76 -3.6,55.74z" />
			</g>
		</g>
	</g>
</svg>