<svg xmlns="http://www.w3.org/2000/svg" viewBox="0 0 139 96" width="139" height="96">
	<style>
		tspan { white-space:pre }
		.shp0 { fill: none } 
		.shp1 { fill: #5d87a1 } 
		.shp2 { fill: #f8981d } 
	</style>
	<path id="Layer" class="shp0" d="M-24.46,111.07h191.15v-132.49h-191.15z" />
	<path id="Layer" class="shp1" d="M34.05,85.58c-0.24,-9.34 -1.04,-19.65 -2.38,-30.92h-6.14l-7.51,22.72h-0.05l-7.46,-22.72h-6.41c-1.22,9.62 -1.99,19.93 -2.29,30.92h4.72c0.15,-9.04 0.52,-17.25 1.1,-24.64h0.05l7.83,24.64h3.94l7.88,-24.64h0.05c0.82,7.69 1.33,15.91 1.51,24.64h5.17M56.5,62.77v0h-4.9c-0.89,7.02 -2.44,13.52 -4.67,19.47c0.15,-1.19 -0.23,-3.28 -1.15,-6.28l-4.08,-13.19h-5.08l5.68,17.64c0.85,2.66 1.28,4.41 1.28,5.27c0,1.25 -0.55,2.38 -1.65,3.39c-0.92,0.83 -2.12,1.24 -3.62,1.24c-0.82,0 -1.54,-0.05 -2.15,-0.14v2.76c1.25,0.51 2.3,0.77 3.16,0.77c3.21,0 6.15,-2 8.84,-5.99c3.45,-5.19 6.23,-13.49 8.34,-24.93z" />
	<path id="Layer" class="shp2" d="M125.38,85.58h-14.7v-30.92h4.94v27.11h9.75zM104.82,89.8l-7.4,-4.31c-1.23,0.36 -2.58,0.54 -4.05,0.54c-3.94,0 -6.89,-1.15 -8.84,-3.44c-2.14,-2.53 -3.2,-6.52 -3.2,-11.95c0,-5.53 1.2,-9.71 3.62,-12.55c2.2,-2.6 5.27,-3.89 9.21,-3.89c8.03,0 12.05,5.12 12.05,15.35c0,5.56 -1.21,9.76 -3.62,12.59c-0.43,0.52 -0.92,0.97 -1.42,1.38l5.68,2.81zM79.17,77.01c0,2.62 -0.96,4.77 -2.88,6.46c-1.92,1.68 -4.5,2.52 -7.74,2.52c-3.02,0 -5.96,-0.97 -8.79,-2.89l1.33,-2.66c2.44,1.22 4.65,1.83 6.64,1.83c1.86,0 3.32,-0.41 4.38,-1.23c1.06,-0.82 1.68,-1.97 1.68,-3.43c0,-1.84 -1.28,-3.41 -3.63,-4.72c-2.17,-1.19 -6.5,-3.68 -6.5,-3.68c-2.35,-1.71 -3.53,-3.55 -3.53,-6.58c0,-2.51 0.88,-4.53 2.63,-6.07c1.76,-1.55 4.02,-2.31 6.8,-2.31c2.87,0 5.48,0.77 7.83,2.29l-1.19,2.66c-2.01,-0.85 -3.99,-1.28 -5.95,-1.28c-1.58,0 -2.81,0.38 -3.66,1.15c-0.86,0.76 -1.39,1.74 -1.39,2.93c0,1.83 1.31,3.42 3.72,4.76c2.2,1.19 6.64,3.72 6.64,3.72c2.41,1.71 3.61,3.53 3.61,6.53z" />
	<path id="Layer" class="shp1" d="M131.59,44.31c-2.99,-0.08 -5.31,0.22 -7.25,1.05c-0.56,0.22 -1.45,0.22 -1.53,0.93c0.3,0.3 0.34,0.78 0.6,1.2c0.45,0.75 1.23,1.75 1.94,2.28c0.78,0.6 1.57,1.19 2.39,1.72c1.45,0.9 3.1,1.42 4.52,2.32c0.82,0.52 1.65,1.19 2.47,1.76c0.41,0.3 0.67,0.78 1.19,0.97v-0.11c-0.26,-0.34 -0.34,-0.82 -0.6,-1.2l-1.12,-1.08c-1.08,-1.46 -2.43,-2.73 -3.88,-3.77c-1.2,-0.82 -3.81,-1.94 -4.3,-3.32l-0.08,-0.08c0.82,-0.08 1.8,-0.37 2.58,-0.6c1.27,-0.33 2.43,-0.26 3.73,-0.59c0.6,-0.15 1.19,-0.34 1.8,-0.52v-0.34c-0.68,-0.67 -1.16,-1.57 -1.87,-2.2c-1.9,-1.64 -4,-3.25 -6.16,-4.59c-1.16,-0.75 -2.65,-1.23 -3.89,-1.87c-0.44,-0.22 -1.19,-0.34 -1.46,-0.71c-0.67,-0.82 -1.05,-1.9 -1.53,-2.88c-1.08,-2.05 -2.13,-4.33 -3.06,-6.5c-0.67,-1.46 -1.08,-2.91 -1.91,-4.26c-3.85,-6.35 -8.03,-10.2 -14.46,-13.97c-1.38,-0.79 -3.02,-1.12 -4.78,-1.53l-2.8,-0.15c-0.6,-0.26 -1.2,-0.97 -1.72,-1.31c-2.13,-1.34 -7.62,-4.26 -9.19,-0.41c-1.01,2.43 1.49,4.82 2.35,6.05c0.64,0.86 1.46,1.83 1.9,2.8c0.26,0.63 0.34,1.31 0.6,1.98c0.6,1.64 1.16,3.47 1.94,5.01c0.41,0.78 0.86,1.6 1.38,2.31c0.3,0.41 0.82,0.6 0.94,1.27c-0.52,0.74 -0.56,1.87 -0.86,2.8c-1.34,4.22 -0.82,9.45 1.09,12.55c0.6,0.93 2.02,2.99 3.92,2.2c1.68,-0.67 1.31,-2.8 1.8,-4.67c0.11,-0.45 0.04,-0.75 0.26,-1.04v0.07c0.52,1.05 1.05,2.05 1.53,3.1c1.16,1.83 3.18,3.73 4.86,5c0.89,0.68 1.6,1.83 2.72,2.25v-0.11h-0.07c-0.23,-0.33 -0.56,-0.48 -0.86,-0.75c-0.67,-0.67 -1.42,-1.5 -1.94,-2.24c-1.57,-2.09 -2.95,-4.41 -4.18,-6.8c-0.6,-1.16 -1.12,-2.43 -1.61,-3.59c-0.23,-0.45 -0.23,-1.12 -0.6,-1.35c-0.56,0.82 -1.38,1.53 -1.79,2.54c-0.71,1.61 -0.78,3.59 -1.05,5.65l-0.15,0.07c-1.19,-0.3 -1.6,-1.53 -2.06,-2.58c-1.12,-2.65 -1.31,-6.91 -0.34,-9.98c0.26,-0.78 1.39,-3.25 0.94,-3.99c-0.22,-0.72 -0.97,-1.12 -1.38,-1.69c-0.48,-0.71 -1.01,-1.6 -1.35,-2.39c-0.9,-2.09 -1.35,-4.41 -2.31,-6.5c-0.45,-0.97 -1.23,-1.98 -1.87,-2.88c-0.71,-1.01 -1.5,-1.72 -2.06,-2.91c-0.19,-0.41 -0.45,-1.08 -0.15,-1.53c0.07,-0.3 0.22,-0.41 0.52,-0.49c0.48,-0.41 1.87,0.11 2.35,0.34c1.39,0.56 2.54,1.08 3.7,1.87c0.52,0.38 1.08,1.09 1.75,1.27h0.79c1.19,0.26 2.54,0.07 3.66,0.41c1.98,0.64 3.77,1.57 5.38,2.58c4.89,3.1 8.93,7.51 11.65,12.78c0.45,0.86 0.64,1.64 1.05,2.54c0.79,1.83 1.76,3.7 2.54,5.49c0.78,1.76 1.53,3.55 2.65,5.01c0.56,0.78 2.81,1.19 3.81,1.61c0.75,0.33 1.91,0.63 2.58,1.04c1.27,0.78 2.54,1.68 3.73,2.54c0.59,0.45 2.47,1.38 2.58,2.13M93.48,11.84c-0.13,0 -0.26,0 -0.39,0.01c-0.13,0.01 -0.26,0.02 -0.38,0.03c-0.13,0.02 -0.26,0.04 -0.38,0.06c-0.13,0.02 -0.25,0.05 -0.38,0.08l0,0.08h0.07c0.3,0.6 0.82,1.01 1.2,1.53c0.3,0.6 0.56,1.19 0.86,1.79l0.07,-0.07c0.53,-0.37 0.79,-0.97 0.79,-1.87c-0.23,-0.26 -0.26,-0.52 -0.45,-0.78c-0.22,-0.37 -0.7,-0.56 -1.01,-0.86" />
	<path id="Layer" class="shp2" d="M135.15,85.58h0.77v-3.79h-1.16l-0.95,2.58l-1.03,-2.58h-1.12v3.79h0.73v-2.88h0.04l1.08,2.88h0.56l1.07,-2.88zM128.91,85.58h0.82v-3.15h1.07v-0.64h-3.01v0.64h1.12z" />
</svg>