<svg xmlns="http://www.w3.org/2000/svg" viewBox="0 0 675 658" width="675" height="658">
	<defs>
		<radialGradient id="grd1" gradientUnits="userSpaceOnUse"  cx="242.521" cy="182.5" r="414.712">
			<stop offset="0" stop-color="#34364e" stop-opacity="0.98" />
			<stop offset="1" stop-color="#0c0824"  />
		</radialGradient>
	</defs>
	<style>
		tspan { white-space:pre }
		.shp0 { fill: url(#grd1) } 
		.shp1 { fill: #31c5f0 } 
	</style>
	<path id="Layer" class="shp0" d="M62.8,63.55h545.67v530.79h-545.67z" />
	<path id="Layer" class="shp1" d="M62.8,594.34h545.67v-530.79h-545.67zM38,38.75h595.28v580.4h-595.28zM439.32,276.86c-19.6,0 -26.29,9.92 -26.29,18.11c0,8.93 4.46,15.13 30.76,28.77c38.94,18.85 51.1,36.96 51.1,63.5c0,39.69 -30.26,61.02 -71.19,61.02c-21.58,0 -40.18,-4.47 -50.85,-10.66c-1.74,-0.74 -1.98,-1.98 -1.98,-3.97v-36.46c0,-2.48 1.24,-3.23 2.98,-1.98c15.63,10.17 33.48,14.63 49.85,14.63c19.6,0 27.78,-8.19 27.78,-19.35c0,-8.93 -5.7,-16.87 -30.76,-29.76c-35.22,-16.87 -49.85,-33.98 -49.85,-62.5c0,-32 25.05,-58.54 68.46,-58.54c21.33,0 36.21,3.23 44.4,6.94c1.98,1.24 2.48,3.22 2.48,4.96v33.98c0,1.98 -1.24,3.23 -3.72,2.48c-10.91,-6.94 -27.04,-11.16 -43.16,-11.16zM226.01,306.37c5.71,0.5 10.17,0.5 20.09,0.5c29.02,0 56.3,-10.17 56.3,-49.61c0,-31.5 -19.6,-47.37 -52.58,-47.37c-9.92,0 -19.35,0.5 -23.81,0.74zM181.86,174.67c0,-1.74 3.47,-2.98 5.46,-2.98c15.88,-0.74 39.44,-1.24 63.99,-1.24c68.71,0 95.49,37.7 95.49,85.82c0,63 -45.64,90.04 -101.69,90.04c-9.43,0 -12.65,-0.5 -19.35,-0.5v95.25c0,1.98 -0.74,2.98 -2.98,2.98h-37.95c-1.98,0 -2.98,-0.74 -2.98,-2.98v-266.39z" />
</svg>