<svg xmlns="http://www.w3.org/2000/svg" viewBox="0 0 120 120" width="120" height="120">
	<defs>
		<linearGradient id="grd1" gradientUnits="userSpaceOnUse"  x1="14.612" y1="14.602" x2="69.212" y2="69.384">
			<stop offset="0" stop-color="#387eb8"  />
			<stop offset="1" stop-color="#366994"  />
		</linearGradient>
		<linearGradient id="grd2" gradientUnits="userSpaceOnUse"  x1="48.199" y1="49.452" x2="106.84" y2="105.632">
			<stop offset="0" stop-color="#ffe052"  />
			<stop offset="1" stop-color="#ffc331"  />
		</linearGradient>
	</defs>
	<style>
		tspan { white-space:pre }
		.shp0 { fill: url(#grd1) } 
		.shp1 { fill: url(#grd2) } 
	</style>
	<g id="layer1">
		<g id="g1894">
			<path id="path8615" class="shp0" d="M85.84,19.66c0,0 0,9.57 0,24.22c0,14.65 -14.91,14.41 -14.91,14.41c0,0 -10.62,0 -26.53,0c-15.91,0 -15.41,15.66 -15.41,15.66v13.13h-9.34c0,0 -15.66,1 -15.66,-27.28c0,-28.28 17.94,-26.25 17.94,-26.25h37.38v-3.78h-26.75l-0.03,-12.59c0,0 -1.75,-12.16 26.28,-12.16c29.29,0 27.03,14.66 27.03,14.66zM39.25,18.28c0,2.66 2.15,4.81 4.81,4.81c2.66,0 4.81,-2.15 4.81,-4.81c0,-2.66 -2.15,-4.81 -4.81,-4.81c-2.66,0 -4.81,2.15 -4.81,4.81z" />
			<path id="path8620" class="shp1" d="M32.58,100.19c0,0 0,-9.57 0,-24.22c0,-14.65 14.91,-14.41 14.91,-14.41c0,0 10.62,0 26.53,0c15.91,0 15.41,-15.66 15.41,-15.66v-13.12h9.34c0,0 15.66,-1 15.66,27.28c0,28.28 -17.94,26.25 -17.94,26.25h-37.37v3.78h26.75l0.03,12.59c0,0 1.75,12.16 -26.28,12.16c-29.29,0 -27.03,-14.66 -27.03,-14.66zM79.17,101.56c0,-2.66 -2.15,-4.81 -4.81,-4.81c-2.66,0 -4.81,2.15 -4.81,4.81c0,2.66 2.15,4.81 4.81,4.81c2.66,0 4.81,-2.15 4.81,-4.81z" />
		</g>
	</g>
</svg>