<svg xmlns="http://www.w3.org/2000/svg" viewBox="0 0 275 275" width="275" height="275">
	<style>
		tspan { white-space:pre }
		.shp0 { fill: #010101 } 
		.shp1 { fill: #ffffff } 
	</style>
	<path id="Layer" class="shp0" d="M105.45,16.38c32.27,-8.27 67.93,-3.45 96.39,14.11c35.84,21.43 59.24,61.98 59.83,103.71c1.31,42.15 -20.66,83.94 -55.96,106.87c-39.29,26.43 -93.65,27.45 -133.77,2.32c-40.9,-24.41 -64.77,-73.64 -58.64,-120.92c4.94,-49.95 43.52,-94 92.16,-106.09z" />
	<path id="Layer" class="shp1" d="M100.51,36.8c60.96,-24.41 135.74,20.66 142.05,86.03c9.82,58.82 -39,118.59 -98.59,120.32c-56.68,5.66 -111.45,-42.39 -113.06,-99.3c-4.23,-46.08 26.14,-91.8 69.6,-107.04z" />
	<path id="Layer" class="shp0" d="M106.64,130.69c0,0 0,0 0,0c0,0 0,0 0,0zM106.64,130.69c12.5,0.18 25.06,0.18 37.62,0.12c14.65,-22.5 29.71,-44.71 44.35,-67.21c-27.92,21.67 -54.65,44.77 -81.98,67.1zM85.38,210.41c27.98,-21.61 54.59,-44.89 82.1,-67.1c-12.56,-0.18 -25.12,-0.18 -37.75,-0.18c-14.65,22.5 -29.71,44.77 -44.35,67.28z" />
</svg>