<svg xmlns="http://www.w3.org/2000/svg" viewBox="0 0 70 70" width="70" height="70">
	<style>
		tspan { white-space:pre }
		.shp0 { fill: #68bd45 } 
	</style>
	<path id="Layer" class="shp0" d="M61.2,6.37c4.1,12.29 6.49,22.63 5.62,30.8c-0.42,5.9 -2.47,11.58 -5.91,16.39c-3.44,4.81 -8.15,8.58 -13.6,10.88c-5.45,2.3 -11.43,3.05 -17.29,2.17c-5.85,-0.89 -11.34,-3.37 -15.87,-7.19l-1.19,-1.05c-6.24,-5.91 -9.84,-14.07 -10.01,-22.67c-0.17,-8.59 3.11,-16.89 9.11,-23.04c6,-6.15 14.22,-9.64 22.81,-9.68c8.59,-0.04 16.84,3.36 22.91,9.45c0.34,-0.47 0.67,-0.95 0.99,-1.44c0.32,-0.49 0.62,-0.99 0.9,-1.49c0.29,-0.51 0.56,-1.02 0.81,-1.54c0.26,-0.52 0.49,-1.05 0.72,-1.59zM18.03,57.61c0.1,-0.35 0.14,-0.71 0.1,-1.07c-0.04,-0.36 -0.15,-0.71 -0.32,-1.02c-0.17,-0.32 -0.4,-0.6 -0.68,-0.82c-0.86,-0.7 -2.06,-0.81 -3.04,-0.28c-0.98,0.53 -1.54,1.59 -1.42,2.7c0.12,1.1 0.89,2.03 1.95,2.35c1.06,0.32 2.21,-0.04 2.91,-0.9c0.23,-0.28 0.4,-0.6 0.5,-0.95zM61.06,48.96c8.06,-10.73 3.56,-28.07 -0.17,-39.15c-3.33,6.93 -11.53,12.23 -18.61,13.92c-6.63,1.58 -12.51,0.28 -18.65,2.65c-14.03,5.39 -13.79,22.1 -6.08,25.85l0.46,0.24c0,0 11.34,-2.25 17.61,-4.57c9.16,-3.39 19.22,-11.72 22.53,-21.42c-1.79,10.08 -10.4,19.77 -19.11,24.2c-4.62,2.38 -8.22,2.89 -15.84,5.54c-0.93,0.35 -1.66,0.66 -1.66,0.66c1.93,-0.32 3.86,-0.43 3.86,-0.43c10.84,-0.51 27.75,3.05 35.67,-7.5z" />
</svg>