<svg xmlns="http://www.w3.org/2000/svg" viewBox="0 0 274 195" width="274" height="195">
	<style>
		tspan { white-space:pre }
		.shp0 { fill: #d1a41a } 
		.shp1 { fill: #ffdc76 } 
		.shp2 { fill: #000000 } 
	</style>
	<g id="Calque_3">
		<g id="XMLID_1_">
			<path id="Layer" class="shp0" d="M11.09,179.76h18.15c-0.83,-9.33 2.78,-20.2 9.6,-28.43c4.31,-5.2 11.22,-11.09 21.76,-14.26c-3.62,-3.72 -6.91,-7.42 -9.87,-11.07c-21.47,23.04 -36,45.86 -39.64,53.76z" />
			<path id="Layer" class="shp0" d="M258.66,181.17c-1.64,-1.84 -7.84,-7.76 -18.75,-6.82l-1.75,0.15l-39.95,-43.01c-1.62,1.06 -3.27,2.06 -4.95,3.02c-22.9,-13.47 -41.77,-33.49 -50.56,-62.71c-31.22,7.72 -67.09,28.24 -88.87,50.92c3.32,4.15 7.23,8.53 11.82,13.11c3.52,-0.68 7.38,-1.07 11.61,-1.07c5,0 9.95,0.16 14.87,0.49c0.14,-6.9 1.35,-14.61 3.66,-23.13l4.35,1.17c-2.25,8.29 -3.42,15.73 -3.52,22.3c47.22,4.07 91.67,22.7 142.3,49.12h22.07c-0.4,-0.97 -1.12,-2.2 -2.33,-3.54z" />
			<path id="Layer" class="shp1" d="M239.56,11.39c-1.75,8.01 -4.95,17.18 -13.2,23.18c-19.81,-5.46 -46.7,-5.02 -66.24,0.57c-8.96,-3.83 -13.11,-11.64 -15.39,-24.1c-8.2,32.58 0.86,93.32 48.98,117.29c28.35,-16.2 48.6,-47.79 47.79,-87.48c-0.01,0 0.24,-20.14 -1.94,-29.46z" />
		</g>
	</g>
	<g id="Layer_1">
		<path id="Layer" class="shp2" d="M105.5,85.23l22.3,14.96l-7.34,-21.76z" />
		<path id="Layer" class="shp2" d="M90.27,93.11l16.59,8.43l-7.89,-13.6z" />
		<path id="Layer" class="shp2" d="M73.41,104.26l11.42,7.89l-3.81,-13.6z" />
		<path id="Layer" class="shp2" d="M202.58,134.99l-7.07,10.88l12.51,-5.71z" />
		<path id="Layer" class="shp2" d="M213.73,147.5l-11.42,8.7l15.77,-4.08z" />
		<path id="Layer" class="shp2" d="M186,29.48l8.43,18.49l5.44,-18.76z" />
		<path id="Layer" class="shp2" d="M144.66,64.29l11.97,-0.82l-13.33,-7.07z" />
		<path id="Layer" class="shp2" d="M147.92,75.98l6.8,-1.9l-8.16,-3.26z" />
		<path id="Layer" class="shp2" d="M241.75,61.57l-10.88,4.62l8.97,1.36z" />
		<path id="Layer" class="shp2" d="M237.39,74.89l-8.43,2.45l6.8,2.45z" />
	</g>
	<g id="Calque_4">
		<path id="Layer" class="shp2" d="M138.92,98.54h26.24v-3.24h-26.24z" />
		<path id="Layer" class="shp2" d="M138.92,90.77h26.24v-3.24h-26.24z" />
		<path id="Layer" class="shp2" d="M219.06,98.54h26.24v-3.24h-26.24z" />
		<path id="Layer" class="shp2" d="M219.06,90.77h26.24v-3.24h-26.24z" />
		<g id="Layer">
			<path id="Layer" class="shp2" d="M222.46,68.3l0.03,-2.9h-12.74c2.35,-5.52 5.63,-10.5 17.37,-10.5v-2.92c-10.82,0 -17.3,4.3 -20.41,13.41h-23.35c1.63,-7.29 1.92,-14.45 -0.49,-18.59c-1.36,-2.33 -3.5,-3.57 -6.19,-3.57c-9.65,0 -13.46,9.86 -13.61,10.28l2.73,1.02l0,0c0.13,-0.34 3.27,-8.39 10.88,-8.39c1.66,0 2.83,0.68 3.67,2.12c1.98,3.4 1.65,10.11 0.01,17.13h-13.31v2.92h12.56h3.02h27.19z" />
			<path id="Layer" class="shp2" d="M211.74,82.74c-0.78,0.5 -16.46,10.68 -16.46,10.68l10.49,6.49l-1.55,2.47l-11.31,-7.38l-10.48,6.91l-1.61,-2.44l9.38,-6.18l-16.65,-10.48l0.69,-1.21c2.13,-3.75 4.02,-8.49 5.37,-13.28h3.02c-1.22,4.51 -2.9,8.92 -4.7,12.54h29.67c-2.55,-4.27 -2.96,-9.24 -1.93,-12.54l2.97,-0.01c-1.45,4.96 -0.35,9.31 3.11,14.41l-0.02,0c0,0.01 0.01,0.01 0.01,0.02zM204.62,83.78l-24.07,-0.01l12.32,7.75z" />
		</g>
	</g>
	<g id="Calque_2">
		<path id="Layer" class="shp2" d="M246.36,37.31c0.87,44.06 -21.62,79.13 -53.1,97.12c-30.6,-18 -54,-47.7 -55.8,-95.4c0.02,-0.01 0.04,-0.02 0.05,-0.04c-0.46,-11.36 1.35,-27.37 5.44,-34.28c9.7,4.6 22.56,12.75 25.13,23.41c15.34,-2.65 32.85,-2.93 48.38,-0.61c3.24,-9.91 17.56,-19.6 25.43,-22.59c2.9,5.9 4.48,27.33 4.5,32.4c-0.01,-0.01 -0.03,-0.01 -0.04,-0.02zM239.56,11.32c-1.75,8.01 -4.95,17.18 -13.2,23.18c-19.81,-5.46 -46.7,-5.02 -66.23,0.57c-8.97,-3.83 -13.11,-11.64 -15.39,-24.1c-8.21,32.58 0.86,93.31 48.98,117.29c28.35,-16.2 48.6,-47.79 47.79,-87.48c-0.01,0 0.25,-20.14 -1.94,-29.46zM219.07,27.94c-0.28,-0.05 -0.55,-0.1 -0.83,-0.14c0.28,0.05 0.55,0.09 0.83,0.14zM220.2,28.14c0.11,0.02 0.23,0.04 0.34,0.06c-0.11,-0.02 -0.23,-0.04 -0.34,-0.06z" />
		<path id="Layer" class="shp2" d="M265.77,187.32l-0.36,1.81h-27.6c-50.16,-26.2 -94.61,-44.97 -141.08,-49.08c0.55,8.45 3.12,15.25 7.69,20.35c4.8,-1.64 10.02,-1.33 13.4,0.88c2.29,1.5 3.54,3.72 3.54,6.26v2.25h-21.41c-13.7,-9.66 -26.02,-19.68 -35.68,-29.11c-10.87,2.66 -17.79,8.41 -21.97,13.46c-6.66,8.03 -9.91,18.78 -8.28,27.38l0.5,2.67h-28.82v-2.25c0,-4.34 15.97,-30.55 37.81,-54.99c1.38,-1.55 2.82,-3.13 4.31,-4.72c-8.96,-11.91 -14.31,-23.4 -15.83,-34.2c-1.6,-11.4 1.15,-21.9 7.95,-30.35c6.93,-8.61 16.19,-12.84 28.3,-12.93c3.44,-0.03 8.16,0.61 12.9,1.46c0.83,-1.67 2.03,-3.11 3.63,-3.89c4.82,-2.36 22.23,3.52 30.83,15.57c-11.65,5.2 -31.16,3.31 -34.79,-2.05c-0.87,-1.28 -1.15,-3.35 -0.89,-5.52c-13.73,-2.31 -27.08,-1.49 -36.48,10.19c-6,7.46 -8.42,16.76 -7,26.9c1.13,8.03 4.92,18.62 14.49,31.53c20.61,-21.43 57.6,-43.61 91.39,-51.76l1.02,4.4c-31.38,7.59 -67.6,28.24 -89.53,51.09c3.32,4.15 7.23,8.52 11.82,13.11c3.52,-0.68 7.38,-1.08 11.61,-1.08c5,0 9.95,0.17 14.87,0.5c0.14,-6.9 1.35,-14.61 3.66,-23.13l4.34,1.18c-2.24,8.29 -3.41,15.73 -3.52,22.3c47.22,4.07 91.67,22.7 142.3,49.11h22.08c-0.4,-0.96 -1.12,-2.19 -2.33,-3.54c-1.64,-1.84 -7.84,-7.75 -18.76,-6.82l-1.74,0.15l-40.16,-43.24l2.31,-2.9c0,0 33.27,35.03 39,41.86c8.08,-0.19 17.77,2.42 22.71,7.95c2.86,3.2 4.27,6.65 3.75,9.23zM60.6,136.99c-3.62,-3.72 -6.91,-7.42 -9.87,-11.07c-21.47,23.05 -36,45.87 -39.64,53.76h18.15c-0.83,-9.33 2.79,-20.2 9.6,-28.42c4.31,-5.2 11.22,-11.09 21.76,-14.26z" />
	</g>
</svg>