<svg xmlns="http://www.w3.org/2000/svg" viewBox="0 0 70 70" width="70" height="70">
	<style>
		tspan { white-space:pre }
		.shp0 { fill: #007acc } 
	</style>
	<path id="Layer" class="shp0" d="M3,3h64v64h-64zM49.72,32.31c-3.47,0.66 -5.88,2.89 -6.56,6.07c-0.19,0.91 -0.13,3.18 0.11,4.08c0.29,1.09 1.01,2.39 1.76,3.2c1.3,1.4 2.72,2.29 6.02,3.71c2.89,1.25 3.9,1.85 4.4,2.56c0.39,0.56 0.48,0.88 0.48,1.63c0,0.82 -0.24,1.38 -0.83,1.92c-1.38,1.24 -4.19,1.39 -6.23,0.31c-0.71,-0.38 -1.89,-1.5 -2.43,-2.33l-0.39,-0.57l-1.84,1.07c-1.02,0.59 -2.09,1.21 -2.38,1.37c-0.29,0.17 -0.56,0.34 -0.59,0.38c-0.07,0.12 1.08,1.82 1.67,2.47c1.5,1.67 3.94,2.94 6.51,3.39c1.18,0.21 3.78,0.24 4.88,0.05c3.55,-0.6 6.06,-2.41 7.08,-5.07c0.92,-2.45 0.62,-5.74 -0.74,-7.8c-1.22,-1.85 -3.18,-3.15 -7.76,-5.12c-2.49,-1.08 -3.28,-1.61 -3.71,-2.49c-0.2,-0.41 -0.27,-0.7 -0.27,-1.2c-0.01,-1.7 1.24,-2.71 3.18,-2.58c1.32,0.09 2.18,0.61 3.01,1.81c0.27,0.41 0.52,0.67 0.58,0.63c1.69,-1.05 4.47,-2.92 4.45,-3c-0.07,-0.27 -0.94,-1.42 -1.53,-2.05c-1.14,-1.18 -2.38,-1.9 -4,-2.31c-1.11,-0.27 -3.73,-0.36 -4.86,-0.14zM39.52,32.51l-11.18,-0.03c-6.15,-0.01 -11.22,0.01 -11.25,0.05c-0.04,0.03 -0.07,1.22 -0.07,2.64v2.57h8.33v23.67h5.89v-23.67h8.33l-0.02,-2.62z" />
</svg>